<mxfile host="app.diagrams.net" modified="2024-04-24T09:00:48.934Z" agent="Mozilla/5.0 (Macintosh; Intel Mac OS X 10_15_7) AppleWebKit/605.1.15 (KHTML, like Gecko) Version/16.5 Safari/605.1.15" etag="ZEfQVwYm8zX3S_8d-kR4" version="24.2.7" type="github">
  <diagram name="Seite-1" id="rA2RBIuoGBYq2s0txEz-">
    <mxGraphModel dx="2190" dy="2093" grid="1" gridSize="10" guides="1" tooltips="1" connect="1" arrows="1" fold="1" page="1" pageScale="1" pageWidth="827" pageHeight="1169" math="0" shadow="0">
      <root>
        <mxCell id="0" />
        <mxCell id="1" parent="0" />
        <mxCell id="t1AcQNOCf8qGVLQo8wgn-10" style="edgeStyle=orthogonalEdgeStyle;rounded=0;orthogonalLoop=1;jettySize=auto;html=1;exitX=0.5;exitY=1;exitDx=0;exitDy=0;endArrow=none;endFill=0;" parent="1" source="t1AcQNOCf8qGVLQo8wgn-11" target="t1AcQNOCf8qGVLQo8wgn-3" edge="1">
          <mxGeometry relative="1" as="geometry" />
        </mxCell>
        <mxCell id="haU4K3w-V6W9Fqou2Yd8-4" value="NC" style="edgeLabel;html=1;align=center;verticalAlign=middle;resizable=0;points=[];" vertex="1" connectable="0" parent="t1AcQNOCf8qGVLQo8wgn-10">
          <mxGeometry x="0.0649" y="2" relative="1" as="geometry">
            <mxPoint as="offset" />
          </mxGeometry>
        </mxCell>
        <mxCell id="t1AcQNOCf8qGVLQo8wgn-19" style="edgeStyle=orthogonalEdgeStyle;rounded=0;orthogonalLoop=1;jettySize=auto;html=1;exitX=0.5;exitY=0;exitDx=0;exitDy=0;entryX=0.5;entryY=1;entryDx=0;entryDy=0;shape=link;" parent="1" source="t1AcQNOCf8qGVLQo8wgn-1" target="t1AcQNOCf8qGVLQo8wgn-18" edge="1">
          <mxGeometry relative="1" as="geometry" />
        </mxCell>
        <mxCell id="t1AcQNOCf8qGVLQo8wgn-21" style="edgeStyle=orthogonalEdgeStyle;rounded=0;orthogonalLoop=1;jettySize=auto;html=1;exitX=0;exitY=0.5;exitDx=0;exitDy=0;endArrow=none;endFill=0;" parent="1" source="t1AcQNOCf8qGVLQo8wgn-22" target="t1AcQNOCf8qGVLQo8wgn-2" edge="1">
          <mxGeometry relative="1" as="geometry" />
        </mxCell>
        <mxCell id="t1AcQNOCf8qGVLQo8wgn-27" style="edgeStyle=orthogonalEdgeStyle;rounded=0;orthogonalLoop=1;jettySize=auto;html=1;exitX=1;exitY=0.25;exitDx=0;exitDy=0;endArrow=none;endFill=0;shape=link;" parent="1" source="t1AcQNOCf8qGVLQo8wgn-1" target="t1AcQNOCf8qGVLQo8wgn-17" edge="1">
          <mxGeometry relative="1" as="geometry" />
        </mxCell>
        <mxCell id="haU4K3w-V6W9Fqou2Yd8-3" style="edgeStyle=orthogonalEdgeStyle;rounded=0;orthogonalLoop=1;jettySize=auto;html=1;exitX=0.5;exitY=1;exitDx=0;exitDy=0;entryX=0.5;entryY=0;entryDx=0;entryDy=0;endArrow=none;endFill=0;" edge="1" parent="1" source="t1AcQNOCf8qGVLQo8wgn-1" target="t1AcQNOCf8qGVLQo8wgn-11">
          <mxGeometry relative="1" as="geometry" />
        </mxCell>
        <mxCell id="haU4K3w-V6W9Fqou2Yd8-5" value="1" style="edgeLabel;html=1;align=center;verticalAlign=middle;resizable=0;points=[];" vertex="1" connectable="0" parent="haU4K3w-V6W9Fqou2Yd8-3">
          <mxGeometry x="-0.5943" relative="1" as="geometry">
            <mxPoint as="offset" />
          </mxGeometry>
        </mxCell>
        <mxCell id="t1AcQNOCf8qGVLQo8wgn-1" value="Kasse&lt;div style=&quot;font-size: 16px;&quot;&gt;&lt;br style=&quot;font-size: 16px;&quot;&gt;&lt;/div&gt;" style="rounded=0;whiteSpace=wrap;html=1;fillColor=#f8cecc;strokeColor=#b85450;fontSize=16;fontStyle=1" parent="1" vertex="1">
          <mxGeometry x="280" y="110" width="120" height="60" as="geometry" />
        </mxCell>
        <mxCell id="t1AcQNOCf8qGVLQo8wgn-39" style="edgeStyle=orthogonalEdgeStyle;rounded=0;orthogonalLoop=1;jettySize=auto;html=1;exitX=0;exitY=0;exitDx=0;exitDy=0;endArrow=none;endFill=0;" parent="1" source="t1AcQNOCf8qGVLQo8wgn-2" target="t1AcQNOCf8qGVLQo8wgn-35" edge="1">
          <mxGeometry relative="1" as="geometry" />
        </mxCell>
        <mxCell id="t1AcQNOCf8qGVLQo8wgn-40" style="edgeStyle=orthogonalEdgeStyle;rounded=0;orthogonalLoop=1;jettySize=auto;html=1;exitX=0.5;exitY=0;exitDx=0;exitDy=0;entryX=0.5;entryY=1;entryDx=0;entryDy=0;endArrow=none;endFill=0;" parent="1" source="t1AcQNOCf8qGVLQo8wgn-2" target="t1AcQNOCf8qGVLQo8wgn-36" edge="1">
          <mxGeometry relative="1" as="geometry" />
        </mxCell>
        <mxCell id="t1AcQNOCf8qGVLQo8wgn-41" style="edgeStyle=orthogonalEdgeStyle;rounded=0;orthogonalLoop=1;jettySize=auto;html=1;exitX=1;exitY=0;exitDx=0;exitDy=0;endArrow=none;endFill=0;" parent="1" source="t1AcQNOCf8qGVLQo8wgn-2" target="t1AcQNOCf8qGVLQo8wgn-37" edge="1">
          <mxGeometry relative="1" as="geometry" />
        </mxCell>
        <mxCell id="haU4K3w-V6W9Fqou2Yd8-9" style="edgeStyle=orthogonalEdgeStyle;rounded=0;orthogonalLoop=1;jettySize=auto;html=1;exitX=0.25;exitY=1;exitDx=0;exitDy=0;entryX=0.5;entryY=0;entryDx=0;entryDy=0;endArrow=none;endFill=0;" edge="1" parent="1" source="t1AcQNOCf8qGVLQo8wgn-2" target="t1AcQNOCf8qGVLQo8wgn-31">
          <mxGeometry relative="1" as="geometry" />
        </mxCell>
        <mxCell id="haU4K3w-V6W9Fqou2Yd8-17" value="N" style="edgeLabel;html=1;align=center;verticalAlign=middle;resizable=0;points=[];fontFamily=Helvetica;fontSize=11;fontColor=default;labelBackgroundColor=default;" vertex="1" connectable="0" parent="haU4K3w-V6W9Fqou2Yd8-9">
          <mxGeometry x="-0.6707" y="1" relative="1" as="geometry">
            <mxPoint as="offset" />
          </mxGeometry>
        </mxCell>
        <mxCell id="haU4K3w-V6W9Fqou2Yd8-11" style="edgeStyle=orthogonalEdgeStyle;rounded=0;orthogonalLoop=1;jettySize=auto;html=1;exitX=0.75;exitY=1;exitDx=0;exitDy=0;entryX=0.5;entryY=0;entryDx=0;entryDy=0;endArrow=none;endFill=0;" edge="1" parent="1" source="t1AcQNOCf8qGVLQo8wgn-2" target="t1AcQNOCf8qGVLQo8wgn-29">
          <mxGeometry relative="1" as="geometry" />
        </mxCell>
        <mxCell id="haU4K3w-V6W9Fqou2Yd8-15" value="1" style="edgeLabel;html=1;align=center;verticalAlign=middle;resizable=0;points=[];fontFamily=Helvetica;fontSize=11;fontColor=default;labelBackgroundColor=default;" vertex="1" connectable="0" parent="haU4K3w-V6W9Fqou2Yd8-11">
          <mxGeometry x="-0.7308" y="-1" relative="1" as="geometry">
            <mxPoint as="offset" />
          </mxGeometry>
        </mxCell>
        <mxCell id="t1AcQNOCf8qGVLQo8wgn-2" value="Ã„rzte" style="rounded=0;whiteSpace=wrap;html=1;fillColor=#f8cecc;strokeColor=#b85450;fontSize=16;fontStyle=1" parent="1" vertex="1">
          <mxGeometry x="-180" y="110" width="120" height="60" as="geometry" />
        </mxCell>
        <mxCell id="t1AcQNOCf8qGVLQo8wgn-7" style="edgeStyle=orthogonalEdgeStyle;rounded=0;orthogonalLoop=1;jettySize=auto;html=1;exitX=0.5;exitY=1;exitDx=0;exitDy=0;fontSize=16;fontStyle=1;endArrow=none;endFill=0;shape=link;" parent="1" source="t1AcQNOCf8qGVLQo8wgn-3" target="t1AcQNOCf8qGVLQo8wgn-6" edge="1">
          <mxGeometry relative="1" as="geometry" />
        </mxCell>
        <mxCell id="haU4K3w-V6W9Fqou2Yd8-1" style="edgeStyle=orthogonalEdgeStyle;rounded=0;orthogonalLoop=1;jettySize=auto;html=1;exitX=0;exitY=1;exitDx=0;exitDy=0;entryX=1;entryY=0.5;entryDx=0;entryDy=0;endArrow=none;endFill=0;" edge="1" parent="1" source="t1AcQNOCf8qGVLQo8wgn-3" target="t1AcQNOCf8qGVLQo8wgn-65">
          <mxGeometry relative="1" as="geometry">
            <Array as="points">
              <mxPoint x="440" y="420" />
              <mxPoint x="410" y="420" />
              <mxPoint x="410" y="530" />
            </Array>
          </mxGeometry>
        </mxCell>
        <mxCell id="haU4K3w-V6W9Fqou2Yd8-7" value="1" style="edgeLabel;html=1;align=center;verticalAlign=middle;resizable=0;points=[];" vertex="1" connectable="0" parent="haU4K3w-V6W9Fqou2Yd8-1">
          <mxGeometry x="-0.8736" y="-3" relative="1" as="geometry">
            <mxPoint as="offset" />
          </mxGeometry>
        </mxCell>
        <mxCell id="haU4K3w-V6W9Fqou2Yd8-6" style="edgeStyle=orthogonalEdgeStyle;rounded=0;orthogonalLoop=1;jettySize=auto;html=1;exitX=0.25;exitY=1;exitDx=0;exitDy=0;entryX=0.5;entryY=0;entryDx=0;entryDy=0;shape=link;" edge="1" parent="1" source="t1AcQNOCf8qGVLQo8wgn-3" target="t1AcQNOCf8qGVLQo8wgn-4">
          <mxGeometry relative="1" as="geometry" />
        </mxCell>
        <mxCell id="t1AcQNOCf8qGVLQo8wgn-3" value="Patient&lt;div style=&quot;font-size: 16px;&quot;&gt;&lt;br style=&quot;font-size: 16px;&quot;&gt;&lt;/div&gt;" style="rounded=0;whiteSpace=wrap;html=1;fillColor=#f8cecc;strokeColor=#b85450;fontSize=16;fontStyle=1" parent="1" vertex="1">
          <mxGeometry x="440" y="380" width="120" height="60" as="geometry" />
        </mxCell>
        <mxCell id="t1AcQNOCf8qGVLQo8wgn-4" value="Vorname" style="ellipse;whiteSpace=wrap;html=1;fillColor=#dae8fc;strokeColor=#6c8ebf;fontSize=16;fontStyle=1" parent="1" vertex="1">
          <mxGeometry x="500" y="650" width="120" height="80" as="geometry" />
        </mxCell>
        <mxCell id="t1AcQNOCf8qGVLQo8wgn-5" value="&lt;u style=&quot;font-size: 16px;&quot;&gt;SNr.&lt;/u&gt;" style="ellipse;whiteSpace=wrap;html=1;fillColor=#dae8fc;strokeColor=#6c8ebf;fontSize=16;fontStyle=1" parent="1" vertex="1">
          <mxGeometry x="740" y="544" width="120" height="80" as="geometry" />
        </mxCell>
        <mxCell id="t1AcQNOCf8qGVLQo8wgn-6" value="Nachname" style="ellipse;whiteSpace=wrap;html=1;fillColor=#dae8fc;strokeColor=#6c8ebf;fontSize=16;fontStyle=1" parent="1" vertex="1">
          <mxGeometry x="707" y="584" width="120" height="80" as="geometry" />
        </mxCell>
        <mxCell id="t1AcQNOCf8qGVLQo8wgn-9" style="edgeStyle=orthogonalEdgeStyle;rounded=0;orthogonalLoop=1;jettySize=auto;html=1;exitX=1;exitY=0.5;exitDx=0;exitDy=0;entryX=0.625;entryY=0.038;entryDx=0;entryDy=0;entryPerimeter=0;fontSize=16;fontStyle=1;endArrow=none;endFill=0;shape=link;" parent="1" source="t1AcQNOCf8qGVLQo8wgn-3" target="t1AcQNOCf8qGVLQo8wgn-5" edge="1">
          <mxGeometry relative="1" as="geometry" />
        </mxCell>
        <mxCell id="t1AcQNOCf8qGVLQo8wgn-11" value="besitzt" style="rhombus;whiteSpace=wrap;html=1;fillColor=#d5e8d4;strokeColor=#82b366;fontSize=16;fontStyle=1" parent="1" vertex="1">
          <mxGeometry x="290" y="260" width="80" height="80" as="geometry" />
        </mxCell>
        <mxCell id="haU4K3w-V6W9Fqou2Yd8-13" style="edgeStyle=orthogonalEdgeStyle;rounded=0;orthogonalLoop=1;jettySize=auto;html=1;exitX=1;exitY=0.5;exitDx=0;exitDy=0;strokeColor=default;align=center;verticalAlign=middle;fontFamily=Helvetica;fontSize=11;fontColor=default;labelBackgroundColor=default;endArrow=none;endFill=0;" edge="1" parent="1" source="t1AcQNOCf8qGVLQo8wgn-16" target="t1AcQNOCf8qGVLQo8wgn-31">
          <mxGeometry relative="1" as="geometry" />
        </mxCell>
        <mxCell id="t1AcQNOCf8qGVLQo8wgn-16" value="Behandlungsdatum" style="ellipse;whiteSpace=wrap;html=1;fillColor=#dae8fc;strokeColor=#6c8ebf;" parent="1" vertex="1">
          <mxGeometry x="-473" y="280" width="120" height="80" as="geometry" />
        </mxCell>
        <mxCell id="t1AcQNOCf8qGVLQo8wgn-17" value="" style="ellipse;whiteSpace=wrap;html=1;fillColor=#dae8fc;strokeColor=#6c8ebf;" parent="1" vertex="1">
          <mxGeometry x="460" y="60" width="120" height="80" as="geometry" />
        </mxCell>
        <mxCell id="t1AcQNOCf8qGVLQo8wgn-18" value="&lt;u&gt;Name&lt;/u&gt;" style="ellipse;whiteSpace=wrap;html=1;fillColor=#dae8fc;strokeColor=#6c8ebf;" parent="1" vertex="1">
          <mxGeometry x="280" y="10" width="120" height="80" as="geometry" />
        </mxCell>
        <mxCell id="t1AcQNOCf8qGVLQo8wgn-23" value="" style="edgeStyle=orthogonalEdgeStyle;rounded=0;orthogonalLoop=1;jettySize=auto;html=1;exitX=0;exitY=0.5;exitDx=0;exitDy=0;endArrow=none;endFill=0;" parent="1" source="t1AcQNOCf8qGVLQo8wgn-1" edge="1">
          <mxGeometry relative="1" as="geometry">
            <mxPoint x="280" y="140" as="sourcePoint" />
            <mxPoint x="280" y="140" as="targetPoint" />
            <Array as="points">
              <mxPoint x="140" y="140" />
              <mxPoint x="140" y="140" />
            </Array>
          </mxGeometry>
        </mxCell>
        <mxCell id="t1AcQNOCf8qGVLQo8wgn-25" value="N" style="edgeLabel;html=1;align=center;verticalAlign=middle;resizable=0;points=[];" parent="t1AcQNOCf8qGVLQo8wgn-23" vertex="1" connectable="0">
          <mxGeometry x="0.0929" relative="1" as="geometry">
            <mxPoint x="-183" as="offset" />
          </mxGeometry>
        </mxCell>
        <mxCell id="t1AcQNOCf8qGVLQo8wgn-26" value="MC" style="edgeLabel;html=1;align=center;verticalAlign=middle;resizable=0;points=[];" parent="t1AcQNOCf8qGVLQo8wgn-23" vertex="1" connectable="0">
          <mxGeometry x="0.8714" y="-1" relative="1" as="geometry">
            <mxPoint as="offset" />
          </mxGeometry>
        </mxCell>
        <mxCell id="t1AcQNOCf8qGVLQo8wgn-22" value="rechnet ab" style="rhombus;whiteSpace=wrap;html=1;fillColor=#d5e8d4;strokeColor=#82b366;" parent="1" vertex="1">
          <mxGeometry x="60" y="100" width="80" height="80" as="geometry" />
        </mxCell>
        <mxCell id="haU4K3w-V6W9Fqou2Yd8-12" style="edgeStyle=orthogonalEdgeStyle;rounded=0;orthogonalLoop=1;jettySize=auto;html=1;exitX=0.5;exitY=1;exitDx=0;exitDy=0;entryX=1;entryY=0.5;entryDx=0;entryDy=0;endArrow=none;endFill=0;" edge="1" parent="1" source="t1AcQNOCf8qGVLQo8wgn-29" target="t1AcQNOCf8qGVLQo8wgn-56">
          <mxGeometry relative="1" as="geometry" />
        </mxCell>
        <mxCell id="haU4K3w-V6W9Fqou2Yd8-16" value="N" style="edgeLabel;html=1;align=center;verticalAlign=middle;resizable=0;points=[];fontFamily=Helvetica;fontSize=11;fontColor=default;labelBackgroundColor=default;" vertex="1" connectable="0" parent="haU4K3w-V6W9Fqou2Yd8-12">
          <mxGeometry x="-0.2469" y="1" relative="1" as="geometry">
            <mxPoint as="offset" />
          </mxGeometry>
        </mxCell>
        <mxCell id="t1AcQNOCf8qGVLQo8wgn-29" value="Ã¼berweist zu" style="rhombus;whiteSpace=wrap;html=1;fillColor=#d5e8d4;strokeColor=#82b366;" parent="1" vertex="1">
          <mxGeometry x="-40" y="270" width="80" height="80" as="geometry" />
        </mxCell>
        <mxCell id="haU4K3w-V6W9Fqou2Yd8-10" style="edgeStyle=orthogonalEdgeStyle;rounded=0;orthogonalLoop=1;jettySize=auto;html=1;exitX=0.5;exitY=1;exitDx=0;exitDy=0;entryX=0;entryY=0.5;entryDx=0;entryDy=0;endArrow=none;endFill=0;" edge="1" parent="1" source="t1AcQNOCf8qGVLQo8wgn-31" target="t1AcQNOCf8qGVLQo8wgn-56">
          <mxGeometry relative="1" as="geometry" />
        </mxCell>
        <mxCell id="haU4K3w-V6W9Fqou2Yd8-18" value="MC" style="edgeLabel;html=1;align=center;verticalAlign=middle;resizable=0;points=[];fontFamily=Helvetica;fontSize=11;fontColor=default;labelBackgroundColor=default;" vertex="1" connectable="0" parent="haU4K3w-V6W9Fqou2Yd8-10">
          <mxGeometry x="0.6327" relative="1" as="geometry">
            <mxPoint as="offset" />
          </mxGeometry>
        </mxCell>
        <mxCell id="t1AcQNOCf8qGVLQo8wgn-31" value="behandelt" style="rhombus;whiteSpace=wrap;html=1;fillColor=#d5e8d4;strokeColor=#82b366;" parent="1" vertex="1">
          <mxGeometry x="-280" y="270" width="80" height="80" as="geometry" />
        </mxCell>
        <mxCell id="t1AcQNOCf8qGVLQo8wgn-35" value="ID" style="ellipse;whiteSpace=wrap;html=1;fillColor=#dae8fc;strokeColor=#6c8ebf;" parent="1" vertex="1">
          <mxGeometry x="-310" y="-10" width="120" height="80" as="geometry" />
        </mxCell>
        <mxCell id="t1AcQNOCf8qGVLQo8wgn-36" value="Name" style="ellipse;whiteSpace=wrap;html=1;fillColor=#dae8fc;strokeColor=#6c8ebf;" parent="1" vertex="1">
          <mxGeometry x="-170" y="-30" width="120" height="80" as="geometry" />
        </mxCell>
        <mxCell id="t1AcQNOCf8qGVLQo8wgn-37" value="FG" style="ellipse;whiteSpace=wrap;html=1;fillColor=#dae8fc;strokeColor=#6c8ebf;" parent="1" vertex="1">
          <mxGeometry x="130" width="120" height="80" as="geometry" />
        </mxCell>
        <mxCell id="haU4K3w-V6W9Fqou2Yd8-2" style="edgeStyle=orthogonalEdgeStyle;rounded=0;orthogonalLoop=1;jettySize=auto;html=1;exitX=0.5;exitY=1;exitDx=0;exitDy=0;entryX=0;entryY=0.5;entryDx=0;entryDy=0;endArrow=none;endFill=0;" edge="1" parent="1" source="t1AcQNOCf8qGVLQo8wgn-56" target="t1AcQNOCf8qGVLQo8wgn-65">
          <mxGeometry relative="1" as="geometry">
            <mxPoint x="-200" y="540" as="targetPoint" />
          </mxGeometry>
        </mxCell>
        <mxCell id="haU4K3w-V6W9Fqou2Yd8-8" value="N" style="edgeLabel;html=1;align=center;verticalAlign=middle;resizable=0;points=[];" vertex="1" connectable="0" parent="haU4K3w-V6W9Fqou2Yd8-2">
          <mxGeometry x="0.0879" y="3" relative="1" as="geometry">
            <mxPoint as="offset" />
          </mxGeometry>
        </mxCell>
        <mxCell id="t1AcQNOCf8qGVLQo8wgn-56" value="Behandlung" style="rounded=0;whiteSpace=wrap;html=1;fillColor=#f8cecc;strokeColor=#b85450;" parent="1" vertex="1">
          <mxGeometry x="-180" y="400" width="120" height="60" as="geometry" />
        </mxCell>
        <mxCell id="t1AcQNOCf8qGVLQo8wgn-65" value="&lt;div&gt;bekommt&lt;/div&gt;" style="rhombus;whiteSpace=wrap;html=1;fillColor=#d5e8d4;strokeColor=#82b366;" parent="1" vertex="1">
          <mxGeometry x="90" y="490" width="80" height="80" as="geometry" />
        </mxCell>
      </root>
    </mxGraphModel>
  </diagram>
</mxfile>
